# xmcd
#
# Track frame offsets:
#	150
#	20700
#	42600
#	94800
#	113950
#	143100
#
# Disc length: 2367 seconds
# Revision: 0
# Processed by: cddbd v1.5.2PL0 Copyright (c) Steve Scherf et al.
# Submitted via: dBpowerAMP V12.0
#
DISCID=53093d06
DTITLE=Adam Norton - Midnight Whirlpool
DYEAR=2014
DGENRE=Blues Instrumental
TTITLE0=Steal Away
TTITLE1=Midnight Whirlpool
TTITLE2=Stone Blue
TTITLE3=Across The Ocean
TTITLE4=The Glowing Stream
TTITLE5=Just Couldn't Stop
EXTD=
EXTT0=
EXTT1=
EXTT2=
EXTT3=
EXTT4=
EXTT5=
PLAYORDER=
